<svg xmlns="http://www.w3.org/2000/svg" width="77" height="87" fill="none"><g clip-path="url(#a)"><g clip-path="url(#b)"><path fill="#D0BDB0" d="M76.889 44.959c0-10.996-4.863-20.872-12.543-27.61-6.738-7.68-16.614-12.543-27.61-12.543C16.48 4.806 0 21.286 0 41.54 0 52.535 4.861 62.41 12.539 69.147c6.738 7.683 16.616 12.547 27.614 12.547.072 0 .142-.005.214-.005.072 0 .142.006.213.006 20.053 0 36.309-16.256 36.309-36.31 0-.071-.005-.14-.005-.213 0-.072.005-.141.005-.213ZM14.377 63.216a31.427 31.427 0 0 1-5.829-18.044C8.664 27.65 22.843 13.47 40.367 13.354a31.427 31.427 0 0 1 18.044 5.828c5.855 5.677 9.508 13.61 9.508 22.36 0 17.194-13.99 31.182-31.183 31.182-8.75 0-16.682-3.653-22.36-9.508ZM.854 41.541C.854 21.756 16.951 5.66 36.736 5.66c8.422 0 16.169 2.923 22.298 7.8a36.514 36.514 0 0 0-18.88-5.237c-20.257 0-36.737 16.48-36.737 36.736a36.514 36.514 0 0 0 5.235 18.876C3.777 57.708.854 49.962.854 41.54Zm39.3 35.028c-8.613 0-16.427-3.465-22.132-9.07 5.274 3.819 11.74 6.08 18.714 6.08 17.666 0 32.037-14.372 32.037-32.038 0-6.972-2.26-13.439-6.079-18.714 5.605 5.705 9.069 13.52 9.07 22.132 0 17.43-14.18 31.61-31.61 31.61Z"/><g clip-path="url(#c)"><g clip-path="url(#d)"><g clip-path="url(#e)"><g clip-path="url(#f)"><g clip-path="url(#g)"><g clip-path="url(#h)"><g clip-path="url(#i)"><path fill="#D0BDB0" d="M15.38 42.62c0-.07.009-.167.025-.293a11.253 11.253 0 0 1 .151-.856 6.32 6.32 0 0 1 .101-.412.79.79 0 0 1 .212-.378.505.505 0 0 1 .357-.133c.077 0 .152.012.228.037.074.024.118.055.132.093a.927.927 0 0 0-.242.31c-.061.124-.11.257-.146.397a3.44 3.44 0 0 0-.084.433 13.7 13.7 0 0 1-.06.415c.115-.153.224-.291.327-.415.102-.123.193-.221.273-.294.108-.101.18-.186.22-.254.037-.067.07-.141.098-.221l.076-.22a.607.607 0 0 1 .149-.229 1.31 1.31 0 0 1 .201 0 .555.555 0 0 1 .2.058c.025.014.039.031.042.052a1.154 1.154 0 0 0-.157.342 5.216 5.216 0 0 0-.13.508 16.15 16.15 0 0 0-.104.55c-.032.183-.06.337-.084.462a.584.584 0 0 0 .094-.083c.049-.049.104-.11.165-.183.06-.073.125-.153.193-.24s.127-.172.18-.255a2.272 2.272 0 0 0 .28-.569c.032-.1.062-.213.09-.337.028-.123.057-.27.089-.44.02-.028.067-.052.139-.071a.767.767 0 0 1 .195-.029c.052 0 .09.01.114.027-.017.194-.049.368-.096.521-.047.153-.11.302-.19.446-.08.145-.18.289-.298.433a9.321 9.321 0 0 1-.417.473l-.216.23a6.17 6.17 0 0 1-.23.23 2.512 2.512 0 0 1-.209.181c-.064.05-.114.074-.149.074a.247.247 0 0 1-.198-.094.362.362 0 0 1-.078-.24c0-.101.004-.19.012-.264.01-.075.024-.154.045-.237a6.561 6.561 0 0 0 .081-.329c.009-.038.015-.071.018-.1l.01-.083a.51.51 0 0 0-.109.086 2.046 2.046 0 0 0-.14.152 12.768 12.768 0 0 0-.267.326 14.786 14.786 0 0 0-.438.628c-.042.065-.09.134-.146.207a.424.424 0 0 1-.237-.157.444.444 0 0 1-.071-.255Zm3.883.396a.663.663 0 0 1-.475-.26.927.927 0 0 1-.178-.585c0-.14.021-.284.063-.433a2.1 2.1 0 0 1 .178-.437c.076-.14.166-.273.27-.398.105-.125.218-.233.34-.324.191-.142.37-.214.537-.214.112.06.221.183.33.37a.316.316 0 0 0 .046-.002.473.473 0 0 1 .047-.002c.184 0 .277.163.277.49a1.876 1.876 0 0 1-.405 1.158 1.788 1.788 0 0 1-1.03.636Zm.266-1.643a2.396 2.396 0 0 0-.303.544 1.965 1.965 0 0 0-.088.277c-.021.089-.032.168-.032.238 0 .083.014.163.042.24.028.076.059.12.094.13.156-.035.3-.1.43-.196.13-.095.244-.214.339-.357.096-.143.17-.304.224-.485.055-.181.082-.374.082-.58 0-.09-.006-.161-.016-.213a.392.392 0 0 0-.052-.136 1.13 1.13 0 0 0-.41.22c-.12.1-.223.206-.31.318Zm1.294 1.356c.017-.1.047-.234.09-.4.044-.165.096-.34.155-.527.06-.185.121-.372.187-.56.067-.188.131-.356.194-.506.044-.108.084-.192.119-.254a.708.708 0 0 1 .116-.153 1.108 1.108 0 0 1 .432.174.458.458 0 0 1 .09.076 1.876 1.876 0 0 0-.249.381 4.2 4.2 0 0 0-.216.548 7.75 7.75 0 0 0 .498-.48c.144-.153.279-.323.405-.511.02-.018.057-.026.11-.026.048 0 .095.007.14.023a.174.174 0 0 1 .094.065 1.405 1.405 0 0 0-.094.496c0 .153.023.268.068.344a.393.393 0 0 1-.071.12c-.043.06-.09.115-.143.167a.83.83 0 0 1-.25-.201.848.848 0 0 1-.162-.279 3.53 3.53 0 0 0-.418.336c-.114.11-.213.232-.295.366a2.267 2.267 0 0 0-.209.462c-.057.174-.111.38-.163.62a.398.398 0 0 1-.113-.033.96.96 0 0 1-.248-.16.23.23 0 0 1-.067-.088Zm2.221-.23c0-.153.037-.367.11-.644a12.1 12.1 0 0 1 .308-.968c.215-.588.418-1.077.608-1.469.19-.391.374-.696.555-.915a.652.652 0 0 1 .155.052c.06.028.12.058.18.09a1.6 1.6 0 0 1 .159.103.41.41 0 0 1 .09.084c-.27.32-.509.664-.714 1.033a8.492 8.492 0 0 0-.564 1.267c-.146.41-.257.78-.334 1.109a3.76 3.76 0 0 0-.114.822v.11c0 .013.001.027.005.041a.41.41 0 0 1-.125-.036c-.035-.018-.058-.038-.068-.063a.59.59 0 0 0-.14-.151c-.032-.021-.058-.076-.08-.165a1.304 1.304 0 0 1-.03-.3Zm2.354-2.102c.069 0 .149.02.24.062.09.042.17.096.24.162a4.985 4.985 0 0 0-.065-.394 2.667 2.667 0 0 0-.115-.383 3.918 3.918 0 0 0-.201-.433 9.601 9.601 0 0 0-.314-.538.343.343 0 0 1 .072-.11.89.89 0 0 1 .125-.117c.046-.036.095-.068.146-.096a.434.434 0 0 1 .143-.052c.097.107.19.242.276.404A3.78 3.78 0 0 1 26.33 40a2.745 2.745 0 0 1-.005 1.127c-.04.192-.096.378-.167.56a3.881 3.881 0 0 1-.248.52c-.094.164-.196.31-.305.439-.11.128-.224.234-.342.316a.904.904 0 0 1-.355.153c-.24-.028-.423-.105-.55-.232-.127-.127-.19-.302-.19-.524 0-.119.018-.247.054-.387a2.69 2.69 0 0 1 .146-.415 3.105 3.105 0 0 1 .475-.753c.092-.105.185-.193.279-.266a.72.72 0 0 1 .277-.141Zm-.533 2.51a.876.876 0 0 0 .366-.277 2.51 2.51 0 0 0 .328-.504c.098-.193.177-.4.238-.621.06-.22.09-.433.09-.639v-.11a.17.17 0 0 0-.004-.04.98.98 0 0 0-.266.176 3.364 3.364 0 0 0-.548.647 4.42 4.42 0 0 0-.225.386 2.49 2.49 0 0 0-.156.371 1.033 1.033 0 0 0-.057.313c0 .174.078.273.234.297Zm3.512.109a.662.662 0 0 1-.475-.26.927.927 0 0 1-.178-.585c0-.14.021-.284.063-.433.042-.15.101-.295.178-.437.076-.14.166-.273.27-.398.105-.125.218-.233.34-.324.191-.142.37-.214.537-.214.112.06.221.183.33.37a.317.317 0 0 0 .046-.002.473.473 0 0 1 .047-.002c.184 0 .276.163.276.49 0 .22-.035.427-.107.624-.07.196-.17.374-.297.535a1.788 1.788 0 0 1-1.03.636Zm.266-1.643a2.381 2.381 0 0 0-.303.544 1.965 1.965 0 0 0-.088.277c-.021.089-.032.168-.032.238 0 .083.014.163.042.24.028.076.059.12.094.13.156-.035.3-.1.43-.196.13-.095.244-.214.339-.357.096-.143.17-.304.224-.485.055-.181.082-.374.082-.58 0-.09-.006-.161-.016-.213a.396.396 0 0 0-.052-.136c-.153.045-.29.118-.41.22-.12.1-.223.206-.31.318Zm1.627 2.968a.245.245 0 0 1-.157-.198c-.014-.094-.073-.17-.177-.23a15.765 15.765 0 0 1 .227-1.156c.054-.23.122-.5.204-.807.081-.309.184-.682.31-1.12-.115 0-.206.002-.272.005-.066.004-.13.01-.193.02a.148.148 0 0 1-.033-.056.196.196 0 0 1-.014-.068c.035-.014.106-.033.214-.056a5.26 5.26 0 0 1 .355-.06c.083-.263.18-.501.287-.712.108-.21.224-.39.35-.54a1.5 1.5 0 0 1 .396-.344.84.84 0 0 1 .543-.112.673.673 0 0 0 .088.008.479.479 0 0 1 .126-.066.41.41 0 0 1 .135-.028c.042 0 .096.023.162.068a1.4 1.4 0 0 0-.089.198 2.498 2.498 0 0 0-.078.245c-.087.258-.18.425-.277.501-.038 0-.059-.05-.062-.151a1.095 1.095 0 0 0-.031-.214.404.404 0 0 1-.037-.177c0-.021.002-.047.005-.076.004-.03.01-.08.021-.149-.059 0-.124.037-.195.11a1.592 1.592 0 0 0-.224.31 4.503 4.503 0 0 0-.238.478c-.08.184-.157.388-.23.61l.438-.015c.018.017.033.056.045.116.012.062.02.125.023.191l-.574-.03c-.132.392-.255.768-.37 1.126-.115.358-.218.689-.308.991-.09.303-.168.574-.232.812-.064.238-.11.43-.138.576Zm3.219-1.471c.16-.108.316-.246.47-.415a4.028 4.028 0 0 0 .735-1.16c.087-.213.146-.416.177-.611 0-.042-.022-.07-.067-.084-.05 0-.116.043-.202.128a3.685 3.685 0 0 0-.281.326 6.712 6.712 0 0 0-.603.931 6.218 6.218 0 0 0-.222.454c-.06.141-.094.255-.101.342-.035 0-.065-.035-.089-.104a.182.182 0 0 0-.036-.054.55.55 0 0 0-.084-.071.432.432 0 0 1-.089-.1.323.323 0 0 1-.02-.135c0-.205.026-.437.078-.694a7.62 7.62 0 0 1 .506-1.579c.115-.259.234-.496.357-.712.124-.215.248-.398.373-.547.126-.15.244-.25.355-.298.035.01.077.028.125.052.05.025.098.053.146.084.05.031.095.062.138.094.044.031.076.059.097.083-.382.31-.714.707-.994 1.192a7.155 7.155 0 0 0-.686 1.72 4.765 4.765 0 0 1 .691-.97c.12-.13.235-.232.344-.309.11-.076.202-.114.275-.114.056.013.11.038.162.073.052.034.099.077.14.127.042.05.077.105.105.162a.553.553 0 0 1 .052.18 1.852 1.852 0 0 1-.076.467c-.047.165-.11.328-.188.488-.078.16-.167.313-.266.46a2.556 2.556 0 0 1-.313.382c-.11.11-.219.198-.329.264a.603.603 0 0 1-.31.1.689.689 0 0 1-.248-.05.447.447 0 0 1-.089-.05c-.022-.017-.033-.035-.033-.052Zm3.85-2.197c-.014.216-.052.401-.114.555a1.2 1.2 0 0 1-.27.407 1.92 1.92 0 0 1-.424.317 4.633 4.633 0 0 1-.585.27c0 .022 0 .043-.003.066a1.167 1.167 0 0 0 .009.212c.006.048.019.093.036.135a.254.254 0 0 0 .073.101.18.18 0 0 0 .12.04c.094 0 .186-.02.277-.063.09-.041.176-.093.257-.154.082-.06.159-.127.23-.198.072-.071.135-.136.19-.195.036.03.065.06.09.088a2.494 2.494 0 0 1-.515.519 1.453 1.453 0 0 1-.529.264c-.24-.028-.427-.116-.561-.264a.768.768 0 0 1-.2-.534c0-.143.02-.288.059-.437.04-.147.096-.29.167-.427a2.53 2.53 0 0 1 .25-.389c.096-.121.199-.227.308-.318.11-.09.223-.162.34-.214a.847.847 0 0 1 .347-.078c.16.02.31.12.448.297Zm-.36.172a.773.773 0 0 0-.292.115 1.23 1.23 0 0 0-.285.25 2.099 2.099 0 0 0-.414.814c.278-.139.51-.31.694-.514.184-.203.283-.424.297-.664Zm2.4-.088a1.137 1.137 0 0 1-.104.4.731.731 0 0 1-.09.142c-.031.039-.06.058-.088.058-.039-.004-.061-.03-.068-.078 0-.01.004-.028.013-.05a22.892 22.892 0 0 0 .058-.16.258.258 0 0 0 .012-.072.217.217 0 0 0-.033-.123.107.107 0 0 0-.092-.05c-.14 0-.245.088-.318.262-.073.173-.11.43-.11.767 0 .034.002.055.005.062l.197-.008c.057-.002.113-.002.169-.002.003.007.005.02.005.041 0 .032-.007.054-.021.068-.08.018-.143.032-.19.044a.83.83 0 0 0-.107.035c-.025.01-.04.021-.044.033a.124.124 0 0 0-.009.05c0 .028.002.056.004.084l.002.104c0 .292-.08.527-.237.704-.159.178-.379.28-.66.308a.432.432 0 0 1-.152-.042.703.703 0 0 1-.271-.221.454.454 0 0 1-.073-.144c0-.132.027-.258.083-.379a1.06 1.06 0 0 1 .227-.318c.096-.092.209-.167.34-.224.13-.057.271-.091.424-.102a1.25 1.25 0 0 0-.026-.255 8.571 8.571 0 0 0-.054-.243 13.19 13.19 0 0 1-.055-.23.969.969 0 0 1-.026-.221c0-.094.019-.187.057-.28.038-.092.089-.177.151-.255a.97.97 0 0 1 .22-.2.787.787 0 0 1 .26-.116c.039.01.09.041.155.091a2.229 2.229 0 0 1 .357.36.491.491 0 0 1 .088.16Zm-1.722 2.379a.862.862 0 0 0 .238-.151 1.156 1.156 0 0 0 .328-.49.837.837 0 0 0 .05-.277.603.603 0 0 0-.23.096 1.387 1.387 0 0 0-.418.425.418.418 0 0 0-.073.21c0 .076.035.138.105.187Zm2.332-2.3h-.298a.338.338 0 0 1-.047-.134.876.876 0 0 1-.02-.175 14.018 14.018 0 0 0 .49.032 5.657 5.657 0 0 1 .348-.593c.057-.085.11-.157.161-.216a.607.607 0 0 1 .117-.115c.035 0 .08.006.134.018a1.79 1.79 0 0 1 .315.107.27.27 0 0 1 .094.063 5.378 5.378 0 0 0-.268.367 9.561 9.561 0 0 0-.244.39 4.345 4.345 0 0 0 .428-.021.192.192 0 0 1 .042.064c.01.027.016.054.016.082-.17.062-.378.097-.621.104a5.985 5.985 0 0 0-.404.976 3.985 3.985 0 0 0-.11.433c-.026.135-.04.257-.04.365 0 .153.058.238.173.256.104-.014.203-.04.297-.079a.982.982 0 0 0 .25-.146c.022.032.034.058.037.079a.563.563 0 0 1-.106.11c-.051.04-.106.082-.165.122-.06.04-.117.074-.172.101a.443.443 0 0 1-.125.047.783.783 0 0 1-.261-.057 1.07 1.07 0 0 1-.237-.13.748.748 0 0 1-.176-.176.329.329 0 0 1-.067-.19c0-.083.011-.189.034-.316.022-.127.054-.265.096-.414a8.722 8.722 0 0 1 .329-.955Zm2.092 3.724c-.049-.014-.077-.066-.083-.156a.792.792 0 0 1-.03-.162 1.683 1.683 0 0 1 .03-.513 5.96 5.96 0 0 1 .1-.431 9.621 9.621 0 0 1 .37-1.086l.244-.623a16.574 16.574 0 0 0 .29-.775c.03-.083.053-.155.07-.214a2.168 2.168 0 0 1 .271-.504.74.74 0 0 1 .105-.122c.122.018.237.049.344.094.108.045.174.089.199.13a1.179 1.179 0 0 0-.167.211 3.829 3.829 0 0 0-.345.66 2.633 2.633 0 0 0-.11.314c.035-.06.08-.124.136-.193.056-.07.141-.165.256-.287.129-.132.25-.234.362-.306a.582.582 0 0 1 .296-.106c.132 0 .24.036.325.11a.354.354 0 0 1 .128.281 2.288 2.288 0 0 1-.485 1.409c-.059.076-.129.15-.209.219-.08.07-.163.131-.25.185a1.434 1.434 0 0 1-.256.128.646.646 0 0 1-.224.047.332.332 0 0 1-.165-.04.213.213 0 0 1-.096-.096 1.72 1.72 0 0 0 .397-.334c.128-.142.247-.307.357-.493a3.85 3.85 0 0 0 .286-.602c.083-.216.145-.435.186-.658-.132.07-.251.145-.358.227-.105.082-.21.189-.315.321-.125.153-.224.277-.297.37a7.78 7.78 0 0 0-.18.24 1.677 1.677 0 0 0-.212.397 6.9 6.9 0 0 0-.17.44c-.064.183-.13.388-.198.614-.067.226-.135.467-.203.723-.068.255-.133.51-.195.764-.039-.007-.072-.035-.1-.084a15.687 15.687 0 0 0-.06-.067.11.11 0 0 0-.044-.032Zm4.846-3.887c-.014.216-.052.401-.115.555-.062.156-.152.291-.268.407a1.948 1.948 0 0 1-.426.317 4.641 4.641 0 0 1-.584.27c0 .022 0 .043-.002.066a1.005 1.005 0 0 0 .007.212c.007.048.02.093.037.135a.255.255 0 0 0 .073.101.18.18 0 0 0 .12.04c.094 0 .186-.02.276-.063.09-.041.177-.093.26-.154.08-.06.157-.127.229-.198.07-.071.134-.136.19-.195.034.03.064.06.088.088a2.507 2.507 0 0 1-.513.519 1.463 1.463 0 0 1-.53.264c-.24-.028-.427-.116-.56-.264a.766.766 0 0 1-.202-.534c0-.143.02-.288.06-.437.04-.147.096-.29.167-.427.072-.138.155-.267.251-.389.095-.121.198-.227.308-.318.109-.09.222-.162.339-.214a.84.84 0 0 1 .346-.078c.16.02.31.12.45.297Zm-.36.172a.774.774 0 0 0-.292.115c-.101.063-.196.146-.284.25a2.11 2.11 0 0 0-.415.814c.278-.139.51-.31.694-.514.184-.203.283-.424.297-.664Zm.475 1.884c.017-.1.047-.234.09-.4.044-.165.096-.34.155-.527.06-.185.122-.372.188-.56a9.43 9.43 0 0 1 .193-.506c.045-.108.085-.192.12-.254a.725.725 0 0 1 .115-.153c.048.007.099.02.151.036a1.166 1.166 0 0 1 .282.138.47.47 0 0 1 .089.076 1.932 1.932 0 0 0-.249.381 4.185 4.185 0 0 0-.216.548 7.97 7.97 0 0 0 .499-.48c.144-.153.279-.323.404-.511.02-.018.057-.026.11-.026.048 0 .095.007.14.023a.174.174 0 0 1 .094.065 1.405 1.405 0 0 0-.094.496c0 .153.023.268.068.344a.393.393 0 0 1-.07.12c-.044.06-.092.115-.144.167a.83.83 0 0 1-.25-.201.848.848 0 0 1-.162-.279 3.658 3.658 0 0 0-.417.336c-.115.11-.214.232-.296.366-.081.134-.15.288-.209.462-.056.174-.111.38-.163.62a.4.4 0 0 1-.112-.033.954.954 0 0 1-.248-.16.24.24 0 0 1-.068-.088Zm2.515 1.612a.245.245 0 0 1-.157-.198c-.014-.094-.073-.17-.177-.23a15.765 15.765 0 0 1 .226-1.156c.055-.23.122-.5.204-.807.082-.309.186-.682.31-1.12-.114 0-.205.002-.27.005-.067.004-.131.01-.194.02a.156.156 0 0 1-.034-.056.208.208 0 0 1-.013-.068c.035-.014.106-.033.214-.056a5.26 5.26 0 0 1 .355-.06c.084-.263.18-.501.287-.712.108-.21.224-.39.35-.54a1.5 1.5 0 0 1 .396-.344.84.84 0 0 1 .543-.112.67.67 0 0 0 .088.008.476.476 0 0 1 .126-.066.41.41 0 0 1 .135-.028c.042 0 .096.023.162.068a1.412 1.412 0 0 0-.089.198 2.498 2.498 0 0 0-.078.245c-.087.258-.179.425-.276.501-.039 0-.06-.05-.063-.151a1.095 1.095 0 0 0-.031-.214.462.462 0 0 1-.03-.083.492.492 0 0 1-.002-.17c.004-.03.01-.08.021-.149-.059 0-.124.037-.196.11a1.648 1.648 0 0 0-.224.31 4.65 4.65 0 0 0-.237.478c-.08.184-.157.388-.23.61l.438-.015c.018.017.033.056.044.116.013.062.02.125.024.191l-.574-.03a83.71 83.71 0 0 0-.37 1.126c-.115.358-.217.689-.308.991-.09.303-.168.574-.233.812-.064.238-.11.43-.137.576Zm2.915-1.622a.411.411 0 0 1-.132-.21.855.855 0 0 1-.034-.213c0-.073.009-.136.026-.188-.014 0-.046.028-.095.084-.047.055-.1.121-.158.198a26.59 26.59 0 0 1-.294.386.866.866 0 0 1-.129.115.244.244 0 0 1-.097.047.741.741 0 0 1-.346-.115.617.617 0 0 1-.141-.125.38.38 0 0 1-.08-.167c0-.098.002-.178.007-.24a1.33 1.33 0 0 1 .033-.204 5.01 5.01 0 0 1 .35-.942c.08-.161.17-.313.269-.454.1-.14.205-.25.316-.33a.719.719 0 0 1 .237.036c.044.014.086.03.125.049a.34.34 0 0 1 .103.076c-.032.035-.111.151-.238.35a5.84 5.84 0 0 0-.488 1.022l-.074.23c-.023.08-.043.158-.06.235a.986.986 0 0 0-.022.182c0 .028.004.049.012.063l.023.031a.613.613 0 0 0 .2-.172 8.06 8.06 0 0 0 .334-.433c.034-.049.075-.105.122-.167.046-.063.094-.13.144-.202.048-.07.094-.144.137-.22.044-.077.08-.154.107-.23a2.03 2.03 0 0 1 .254-.52c.043-.064.095-.124.154-.18a.75.75 0 0 1 .146.016c.052.01.102.023.148.039a.798.798 0 0 1 .123.052c.035.02.061.04.078.06a6.494 6.494 0 0 1-.208.455c-.077.149-.148.296-.214.44a3.994 3.994 0 0 0-.168.43 1.397 1.397 0 0 0-.067.418.892.892 0 0 0 .096.418.149.149 0 0 1 .018.062c0 .004-.003.009-.01.016a.016.016 0 0 1-.011.005.368.368 0 0 1-.093-.016 1.212 1.212 0 0 1-.27-.11 1.58 1.58 0 0 1-.133-.077Zm4.153-1.487c-.055.003-.123.039-.203.106-.08.068-.166.155-.258.26a7.545 7.545 0 0 0-.287.354c-.1.128-.195.256-.287.383a77.79 77.79 0 0 0-.259.358c-.08.11-.147.2-.203.266a.543.543 0 0 1-.318-.366 3.133 3.133 0 0 1 .196-.7c.05-.124.113-.255.188-.393.074-.137.165-.282.273-.435-.052.003-.123.04-.214.111-.09.072-.188.164-.292.277-.104.113-.212.24-.323.38a9.908 9.908 0 0 0-.633.89c-.086.136-.148.217-.187.24a.56.56 0 0 1-.187-.213 1.098 1.098 0 0 1-.079-.256 3.08 3.08 0 0 1 .136-.7c.08-.253.184-.505.31-.755.128-.25.25-.48.368-.69.098.022.186.055.264.1.078.045.16.111.247.198a1.61 1.61 0 0 1-.161.342l-.23.378c-.08.132-.153.268-.219.407-.066.14-.11.28-.13.423.097-.14.213-.3.347-.48.134-.181.271-.352.412-.511.14-.16.28-.296.42-.408.139-.11.264-.166.375-.166.042 0 .087.007.136.02a.788.788 0 0 1 .24.112c.028.02.044.034.047.045-.017.07-.058.164-.122.284l-.207.379c-.073.132-.14.26-.203.383a1.04 1.04 0 0 0-.11.295c.17-.233.33-.445.48-.635.15-.189.29-.351.423-.487.132-.136.255-.24.368-.313a.594.594 0 0 1 .32-.11.38.38 0 0 1 .197.055c.06.037.103.09.127.16-.031.104-.082.229-.153.375-.072.146-.144.3-.217.461a6.996 6.996 0 0 0-.195.478 1.238 1.238 0 0 0-.087.423c0 .073.01.12.031.143.021.023.05.034.089.034a.292.292 0 0 0 .118-.024.236.236 0 0 1 .08-.023c.021.014.033.032.037.053.003.02.005.04.005.057-.07.056-.14.102-.214.139a.545.545 0 0 1-.245.054.445.445 0 0 1-.206-.042.368.368 0 0 1-.133-.115.452.452 0 0 1-.073-.167.938.938 0 0 1-.021-.203c0-.118.015-.236.047-.353.031-.116.069-.227.112-.334a3.37 3.37 0 0 1 .138-.297c.049-.092.09-.174.125-.247Zm2.844-.559c-.014.216-.052.401-.115.555-.062.156-.152.291-.268.407a1.948 1.948 0 0 1-.426.317 4.641 4.641 0 0 1-.584.27c0 .022 0 .043-.002.066a.99.99 0 0 0 .007.212c.007.048.02.093.037.135a.255.255 0 0 0 .073.101.18.18 0 0 0 .12.04c.094 0 .186-.02.276-.063.09-.041.177-.093.258-.154a2.04 2.04 0 0 0 .23-.198c.072-.071.135-.136.19-.195.035.03.065.06.09.088a2.507 2.507 0 0 1-.514.519 1.463 1.463 0 0 1-.53.264c-.24-.028-.428-.116-.562-.264a.768.768 0 0 1-.2-.534c0-.143.02-.288.06-.437.04-.147.095-.29.166-.427.072-.138.156-.267.252-.389.095-.121.198-.227.308-.318.109-.09.222-.162.339-.214a.84.84 0 0 1 .346-.078c.16.02.31.12.449.297Zm-.36.172a.772.772 0 0 0-.292.115 1.23 1.23 0 0 0-.285.25 2.11 2.11 0 0 0-.414.814c.278-.139.51-.31.694-.514.184-.203.283-.424.297-.664Zm2.4-.088a.97.97 0 0 1-.034.205 1.08 1.08 0 0 1-.07.194.736.736 0 0 1-.089.143c-.031.039-.06.058-.089.058-.038-.004-.06-.03-.068-.078 0-.01.005-.028.013-.05a2.996 2.996 0 0 0 .057-.16.243.243 0 0 0 .014-.072.212.212 0 0 0-.035-.123.104.104 0 0 0-.09-.05c-.14 0-.245.088-.319.262-.073.173-.11.43-.11.767 0 .034.003.055.006.062l.195-.008c.058-.002.115-.002.17-.002.004.007.005.02.005.041 0 .032-.006.054-.02.068-.08.018-.144.032-.191.044a.84.84 0 0 0-.107.035c-.024.01-.039.021-.045.033a.14.14 0 0 0-.007.05c0 .028 0 .056.002.084.002.027.003.062.003.104 0 .292-.079.527-.238.704-.158.178-.377.28-.66.308a.432.432 0 0 1-.15-.042.728.728 0 0 1-.272-.221.454.454 0 0 1-.073-.144c0-.132.028-.258.084-.379.055-.12.13-.226.226-.318s.21-.167.34-.224c.13-.057.272-.091.425-.102a1.25 1.25 0 0 0-.026-.255 6.454 6.454 0 0 0-.055-.243 28.764 28.764 0 0 1-.055-.23.969.969 0 0 1-.026-.221c0-.094.02-.187.058-.28.038-.092.088-.177.151-.255a.972.972 0 0 1 .22-.2.788.788 0 0 1 .26-.116c.038.01.09.041.153.091a2.137 2.137 0 0 1 .358.36.49.49 0 0 1 .089.16Zm-1.722 2.379a.847.847 0 0 0 .237-.151 1.141 1.141 0 0 0 .329-.49.821.821 0 0 0 .05-.277.604.604 0 0 0-.23.096 1.395 1.395 0 0 0-.417.425.418.418 0 0 0-.073.21c0 .076.035.138.104.187Z"/></g></g><g clip-path="url(#j)"><g clip-path="url(#k)"><path fill="#DEDEDE" d="M34.815 47.667a.372.372 0 0 1-.187-.045.32.32 0 0 1-.163-.282c0-.054.012-.108.036-.16a.546.546 0 0 1 .429-.303.37.37 0 0 1-.136-.283.378.378 0 0 1 .18-.318.35.35 0 0 1 .188-.054c.067 0 .118.016.153.05.034.033.052.081.052.143a.369.369 0 0 1-.08.232c-.022.026-.043.04-.064.04a.054.054 0 0 1-.037-.018.128.128 0 0 1-.029-.04.704.704 0 0 0 .107-.118.224.224 0 0 0 .044-.132.113.113 0 0 0-.033-.086c-.021-.02-.053-.03-.095-.03a.208.208 0 0 0-.14.049.306.306 0 0 0-.086.13.525.525 0 0 0-.01.321c.013.05.04.094.084.131a.437.437 0 0 0-.209.092.513.513 0 0 0-.138.168.419.419 0 0 0-.05.192c0 .04.008.08.023.119a.23.23 0 0 0 .073.1.21.21 0 0 0 .134.04.379.379 0 0 0 .19-.053.748.748 0 0 0 .298-.332l.025.018c-.042.082-.09.154-.147.22a.683.683 0 0 1-.188.153.464.464 0 0 1-.224.056Zm1.075-.12c-.041 0-.073-.011-.094-.032a.114.114 0 0 1-.031-.083c0-.025.004-.051.013-.079.01-.027.018-.056.026-.085a.306.306 0 0 0 .013-.085c0-.034-.007-.057-.021-.07a.073.073 0 0 0-.05-.018.183.183 0 0 0-.114.045.657.657 0 0 0-.111.117c-.036.047-.07.096-.1.146-.032.05-.059.095-.083.135a.156.156 0 0 1-.055-.01.087.087 0 0 1-.04-.03c0-.006.006-.024.019-.055l.044-.115a1.73 1.73 0 0 0 .045-.14.495.495 0 0 0 .02-.13.12.12 0 0 1 .082-.038c.032 0 .048.015.048.046 0 .02-.005.051-.016.096a1.55 1.55 0 0 1-.041.14c.032-.048.068-.097.108-.145a.68.68 0 0 1 .129-.121.234.234 0 0 1 .136-.049c.047 0 .08.017.101.05.021.034.032.071.032.112a.287.287 0 0 1-.018.103 2.112 2.112 0 0 1-.037.091.223.223 0 0 0-.019.089c0 .025.005.043.015.053.01.01.023.015.039.015.03 0 .06-.014.09-.042a.575.575 0 0 0 .086-.107 1.18 1.18 0 0 0 .075-.13l.02.023a.908.908 0 0 1-.085.156.423.423 0 0 1-.102.107.209.209 0 0 1-.124.04Zm.449.064a.194.194 0 0 1-.144-.057c-.038-.038-.057-.096-.057-.172 0-.06.011-.118.035-.175a.58.58 0 0 1 .092-.153.485.485 0 0 1 .127-.109.276.276 0 0 1 .139-.04c.049 0 .082.014.1.043a.17.17 0 0 1 .003.181c-.017.026-.038.04-.066.04a.065.065 0 0 1-.052-.027c.018-.01.034-.03.047-.059a.204.204 0 0 0 .02-.083.058.058 0 0 0-.009-.033c-.005-.008-.015-.012-.03-.012a.157.157 0 0 0-.1.043.496.496 0 0 0-.096.111.748.748 0 0 0-.071.144.412.412 0 0 0-.028.141.2.2 0 0 0 .027.102c.018.032.052.047.104.047a.3.3 0 0 0 .144-.04.48.48 0 0 0 .136-.112.582.582 0 0 0 .1-.172l.023.017a.67.67 0 0 1-.113.194.579.579 0 0 1-.157.133.351.351 0 0 1-.174.048Zm.51-.043c-.051 0-.087-.015-.11-.047a.202.202 0 0 1-.031-.116c0-.037.006-.075.018-.115a.529.529 0 0 1 .047-.11.319.319 0 0 1 .067-.085.113.113 0 0 1 .074-.032c.006 0 .012 0 .019.002a.203.203 0 0 1 .019.007.224.224 0 0 0-.039.052.94.94 0 0 0-.075.186.315.315 0 0 0-.014.082c0 .036.006.062.018.078a.056.056 0 0 0 .047.025c.025 0 .055-.014.09-.04a.61.61 0 0 0 .102-.104.27.27 0 0 1-.078-.108.353.353 0 0 1-.028-.137c0-.04.007-.077.02-.111a.197.197 0 0 1 .06-.084.149.149 0 0 1 .096-.031c.049 0 .081.013.098.04a.18.18 0 0 1 .025.098.421.421 0 0 1-.034.155.91.91 0 0 1-.086.164.14.14 0 0 0 .068.018.213.213 0 0 0 .192-.13l.022.019a.23.23 0 0 1-.102.119.265.265 0 0 1-.124.035.212.212 0 0 1-.086-.018.667.667 0 0 1-.134.134.24.24 0 0 1-.14.054Zm.264-.263a.762.762 0 0 0 .075-.14.365.365 0 0 0 .029-.136.149.149 0 0 0-.015-.077c-.01-.016-.023-.024-.039-.024-.024 0-.048.018-.073.052a.218.218 0 0 0-.038.131c0 .035.005.07.015.105.01.035.026.065.046.089Zm.402.26a.112.112 0 0 1-.098-.055.22.22 0 0 1-.037-.126c0-.035.006-.075.017-.12a1.16 1.16 0 0 1 .042-.135.618.618 0 0 1 .052-.11c.018-.028.034-.042.047-.042.006 0 .016.003.03.01a.108.108 0 0 1 .036.025 1.048 1.048 0 0 0-.099.228.466.466 0 0 0-.017.177c.002.02.008.037.018.053.01.015.023.023.043.023.022 0 .046-.012.07-.035a.553.553 0 0 0 .072-.09c.025-.038.048-.078.071-.12a6.96 6.96 0 0 0 .064-.124l.049-.099a.343.343 0 0 1 .07.022c.01.005.016.014.016.025 0 .004-.006.02-.018.047l-.042.099c-.016.038-.03.078-.042.117a.366.366 0 0 0-.018.104.09.09 0 0 0 .014.052c.008.013.024.02.045.02a.18.18 0 0 0 .092-.034.492.492 0 0 0 .109-.1.697.697 0 0 0 .099-.157l.023.017a.621.621 0 0 1-.099.17.51.51 0 0 1-.129.116.256.256 0 0 1-.133.042.134.134 0 0 1-.074-.018.096.096 0 0 1-.04-.049.183.183 0 0 1-.011-.066c0-.014.001-.03.003-.044a.704.704 0 0 1 .01-.046.953.953 0 0 1-.07.11.38.38 0 0 1-.08.082.143.143 0 0 1-.085.03Zm1.23-.018c-.042 0-.074-.011-.095-.032a.114.114 0 0 1-.03-.083c0-.025.004-.051.012-.079.01-.027.018-.056.027-.085a.31.31 0 0 0 .012-.085c0-.034-.007-.057-.02-.07a.073.073 0 0 0-.052-.018.183.183 0 0 0-.113.045.66.66 0 0 0-.11.117c-.037.047-.07.096-.101.146l-.083.135a.156.156 0 0 1-.054-.01.087.087 0 0 1-.04-.03c0-.006.005-.024.018-.055.013-.031.027-.07.044-.115a1.73 1.73 0 0 0 .045-.14.495.495 0 0 0 .02-.13.123.123 0 0 1 .082-.038c.032 0 .048.015.048.046a.47.47 0 0 1-.016.096c-.01.045-.024.092-.04.14.031-.048.068-.097.108-.145a.68.68 0 0 1 .128-.121.234.234 0 0 1 .136-.049c.047 0 .08.017.101.05.021.034.032.071.032.112a.29.29 0 0 1-.018.103 2.111 2.111 0 0 1-.037.091.225.225 0 0 0-.019.089c0 .025.005.043.015.053.01.01.024.015.04.015.029 0 .059-.014.089-.042a.57.57 0 0 0 .087-.107 1.18 1.18 0 0 0 .074-.13l.02.023a.915.915 0 0 1-.084.156.423.423 0 0 1-.103.107.209.209 0 0 1-.123.04Zm.409.046c-.052 0-.091-.015-.119-.045-.027-.03-.041-.074-.041-.132 0-.053.01-.118.03-.195.02-.077.044-.156.074-.237a1.485 1.485 0 0 0-.034-.007.157.157 0 0 1-.03-.008v-.032a1.03 1.03 0 0 0 .078.007 2.822 2.822 0 0 1 .166-.349.719.719 0 0 1 .08-.113c.026-.028.048-.042.066-.042.01 0 .018.004.026.01.008.007.012.017.012.03a.25.25 0 0 1-.038.1 6.35 6.35 0 0 1-.093.163 2.547 2.547 0 0 0-.108.207h.067l.124-.002c.044-.001.088-.004.132-.01v.033a4.668 4.668 0 0 1-.177.016 2.03 2.03 0 0 1-.138.006h-.027c-.028.063-.051.128-.07.195a.711.711 0 0 0-.029.196c0 .051.008.088.023.11.016.022.042.033.078.033a.27.27 0 0 0 .182-.083.732.732 0 0 0 .158-.224l.023.018a.757.757 0 0 1-.108.181.537.537 0 0 1-.144.128.316.316 0 0 1-.163.046Zm.551-.003c-.072 0-.127-.02-.163-.06a.212.212 0 0 1-.055-.148c0-.054.013-.11.04-.17a.702.702 0 0 1 .255-.298.305.305 0 0 1 .16-.049c.028 0 .053.008.077.022.023.014.034.044.034.088a.226.226 0 0 1-.04.128.419.419 0 0 1-.106.107.633.633 0 0 1-.298.113.398.398 0 0 0-.008.064.23.23 0 0 0 .007.054.133.133 0 0 0 .022.05c.01.014.026.026.044.034a.166.166 0 0 0 .069.013.3.3 0 0 0 .152-.044.582.582 0 0 0 .14-.116c.043-.048.08-.1.11-.158l.021.017a.67.67 0 0 1-.122.186.593.593 0 0 1-.162.123.39.39 0 0 1-.177.044Zm-.087-.302a.785.785 0 0 0 .227-.122.445.445 0 0 0 .093-.094.187.187 0 0 0 .036-.11.055.055 0 0 0-.007-.03c-.005-.008-.015-.011-.03-.011a.165.165 0 0 0-.092.033.473.473 0 0 0-.093.087.765.765 0 0 0-.08.118.597.597 0 0 0-.054.13Zm.801.27a.135.135 0 0 1-.096-.033.11.11 0 0 1-.035-.084.29.29 0 0 1 .025-.113l.05-.118a.277.277 0 0 0 .024-.104c0-.039-.011-.067-.033-.086a.93.93 0 0 0-.068-.05 3.18 3.18 0 0 1-.16.344l-.015-.03a2.344 2.344 0 0 0 .145-.341.059.059 0 0 1-.018-.044c0-.035.01-.065.03-.087.02-.023.036-.034.045-.034.013 0 .02.005.023.016.002.012.002.02.002.027a.13.13 0 0 1-.01.034.15.15 0 0 0-.01.032c0 .017.01.032.029.045l.063.047a.308.308 0 0 1 .064.063.153.153 0 0 1 .028.094.294.294 0 0 1-.023.11l-.044.105a.22.22 0 0 0-.023.088c0 .022.005.036.016.043.01.007.023.011.038.011a.176.176 0 0 0 .089-.027c.03-.018.06-.04.088-.068a.69.69 0 0 0 .077-.087.397.397 0 0 0 .05-.085l.024.018a.674.674 0 0 1-.225.267.274.274 0 0 1-.15.046Zm.933.035c-.052 0-.091-.015-.119-.045-.027-.03-.041-.074-.041-.132 0-.053.01-.118.03-.195.02-.077.044-.156.074-.237a1.485 1.485 0 0 0-.034-.007.155.155 0 0 1-.03-.008v-.032a1.03 1.03 0 0 0 .078.007 2.822 2.822 0 0 1 .166-.349.719.719 0 0 1 .08-.113c.026-.028.048-.042.066-.042.01 0 .018.004.026.01.008.007.012.017.012.03a.25.25 0 0 1-.038.1 6.35 6.35 0 0 1-.093.163 2.547 2.547 0 0 0-.108.207h.067l.124-.002c.044-.001.088-.004.132-.01v.033a4.63 4.63 0 0 1-.315.022h-.027c-.028.063-.051.128-.07.195a.711.711 0 0 0-.029.196c0 .051.008.088.023.11.016.022.042.033.078.033a.27.27 0 0 0 .182-.083.73.73 0 0 0 .158-.224l.023.018a.757.757 0 0 1-.108.181.537.537 0 0 1-.144.128.317.317 0 0 1-.163.046Zm.442-.014c-.023 0-.04-.02-.054-.057a.396.396 0 0 1-.02-.13c0-.057.01-.125.03-.204a2.94 2.94 0 0 1 .3-.733c.04-.068.077-.123.113-.163.036-.041.067-.061.094-.061.021 0 .036.012.046.038.008.026.013.05.013.075a.425.425 0 0 1-.022.121 1.399 1.399 0 0 1-.154.314c-.035.053-.072.101-.113.145a.576.576 0 0 1-.124.103 1.08 1.08 0 0 0-.065.387c0 .01.001.019.003.027.016-.05.035-.097.054-.143.02-.046.041-.088.064-.127a.647.647 0 0 1 .073-.102.314.314 0 0 1 .081-.068.184.184 0 0 1 .092-.024c.033 0 .06.008.08.024.02.016.034.036.043.06.008.025.013.05.013.077a.315.315 0 0 1-.019.108 2.712 2.712 0 0 1-.039.1.248.248 0 0 0-.02.093c0 .024.006.041.016.052a.05.05 0 0 0 .039.016c.027 0 .058-.013.092-.04a.753.753 0 0 0 .187-.248l.024.023a.746.746 0 0 1-.092.158.46.46 0 0 1-.118.113.246.246 0 0 1-.135.04c-.04 0-.071-.01-.092-.031a.11.11 0 0 1-.031-.081c0-.025.004-.053.014-.084l.028-.095a.344.344 0 0 0 .013-.092c0-.03-.006-.053-.02-.066a.066.066 0 0 0-.048-.02.112.112 0 0 0-.08.036.373.373 0 0 0-.066.092 1.4 1.4 0 0 0-.056.12l-.049.119a.562.562 0 0 1-.047.092c-.015.024-.031.036-.048.036Zm.133-.622a.586.586 0 0 0 .098-.1 1.751 1.751 0 0 0 .162-.265c.021-.045.038-.085.05-.121a.283.283 0 0 0 .018-.08c0-.007 0-.01-.002-.013a.006.006 0 0 0-.005-.002c-.009 0-.026.016-.051.049a1.878 1.878 0 0 0-.27.532Zm.83.633c-.073 0-.128-.02-.164-.06a.212.212 0 0 1-.055-.148c0-.054.014-.11.04-.17a.698.698 0 0 1 .256-.298.305.305 0 0 1 .16-.049c.027 0 .053.008.076.022.023.014.035.044.035.088a.226.226 0 0 1-.04.128.419.419 0 0 1-.106.107.632.632 0 0 1-.299.113.398.398 0 0 0-.007.064c0 .018.002.036.006.054a.13.13 0 0 0 .023.05c.01.014.025.026.044.034a.166.166 0 0 0 .069.013.299.299 0 0 0 .152-.044.582.582 0 0 0 .14-.116c.043-.048.08-.1.11-.158l.02.017a.668.668 0 0 1-.122.186.591.591 0 0 1-.161.123.39.39 0 0 1-.177.044Zm-.088-.302a.78.78 0 0 0 .227-.122.443.443 0 0 0 .093-.094.187.187 0 0 0 .037-.11.055.055 0 0 0-.007-.03c-.005-.008-.015-.011-.03-.011a.165.165 0 0 0-.092.033.47.47 0 0 0-.093.087.765.765 0 0 0-.081.118.597.597 0 0 0-.054.13Zm1.026.725a.117.117 0 0 1-.072-.024c-.021-.016-.032-.043-.032-.08 0-.036.01-.069.033-.1a.393.393 0 0 1 .085-.084.863.863 0 0 1 .114-.07l.117-.062a2.625 2.625 0 0 0 .091-.296.881.881 0 0 1-.142.164.227.227 0 0 1-.15.066.116.116 0 0 1-.1-.048.21.21 0 0 1-.034-.126c0-.062.015-.121.046-.177a.614.614 0 0 1 .275-.25.38.38 0 0 1 .154-.037c.035 0 .06.005.074.017.015.011.023.025.023.04 0 .01-.003.02-.009.025a.068.068 0 0 1-.012.01.05.05 0 0 0-.027-.02.143.143 0 0 0-.045-.006.252.252 0 0 0-.136.041.45.45 0 0 0-.115.106.611.611 0 0 0-.08.134.327.327 0 0 0-.03.126c0 .029.006.05.017.065a.055.055 0 0 0 .046.023c.035 0 .076-.023.125-.07.048-.045.095-.101.14-.167l.01-.045.012-.05a.195.195 0 0 1 .026-.058c.014-.022.036-.033.066-.033h.017l.02.005c0 .02-.006.054-.017.105a3.268 3.268 0 0 1-.12.387.621.621 0 0 0 .291-.304l.024.018a.42.42 0 0 1-.086.147.78.78 0 0 1-.25.19c-.033.08-.068.154-.105.22a.703.703 0 0 1-.116.159.18.18 0 0 1-.128.059Zm-.006-.057c.024 0 .057-.024.098-.071a.936.936 0 0 0 .134-.243 1.619 1.619 0 0 0-.134.074.48.48 0 0 0-.101.082.138.138 0 0 0-.04.095c0 .019.005.034.013.046.008.011.018.017.03.017Zm.758-.388c-.051 0-.087-.015-.109-.047a.201.201 0 0 1-.032-.116c0-.037.006-.075.018-.115a.54.54 0 0 1 .047-.11.317.317 0 0 1 .067-.085.112.112 0 0 1 .074-.032c.006 0 .012 0 .019.002a.193.193 0 0 1 .019.007.224.224 0 0 0-.039.052.895.895 0 0 0-.075.186.312.312 0 0 0-.014.082c0 .036.006.062.018.078a.055.055 0 0 0 .047.025c.025 0 .055-.014.09-.04a.615.615 0 0 0 .102-.104.27.27 0 0 1-.078-.108.353.353 0 0 1-.028-.137c0-.04.007-.077.02-.111a.196.196 0 0 1 .06-.084.149.149 0 0 1 .096-.031c.049 0 .082.013.098.04a.18.18 0 0 1 .025.098.42.42 0 0 1-.034.155.917.917 0 0 1-.086.164.139.139 0 0 0 .068.018.213.213 0 0 0 .192-.13l.022.019a.23.23 0 0 1-.101.119.266.266 0 0 1-.125.035.212.212 0 0 1-.086-.018.667.667 0 0 1-.134.134.24.24 0 0 1-.14.054Zm.264-.263a.762.762 0 0 0 .075-.14.365.365 0 0 0 .029-.136.15.15 0 0 0-.015-.077c-.01-.016-.023-.024-.039-.024-.024 0-.048.018-.073.052a.218.218 0 0 0-.038.131c0 .035.005.07.016.105.01.035.025.065.045.089Zm.577.252a.135.135 0 0 1-.095-.032.109.109 0 0 1-.035-.084.29.29 0 0 1 .025-.113l.05-.118a.279.279 0 0 0 .023-.104c0-.039-.01-.067-.033-.086a.91.91 0 0 0-.067-.05 3.24 3.24 0 0 1-.16.344l-.016-.03a2.356 2.356 0 0 0 .145-.341.059.059 0 0 1-.018-.044c0-.035.01-.065.03-.087.021-.023.036-.034.046-.034.013 0 .02.005.022.016l.003.027a.125.125 0 0 1-.01.034.147.147 0 0 0-.01.032c0 .017.01.032.028.045l.063.047a.308.308 0 0 1 .064.063.153.153 0 0 1 .028.094.294.294 0 0 1-.022.11 3.6 3.6 0 0 1-.045.105.221.221 0 0 0-.023.088c0 .022.006.036.016.043.011.007.024.011.038.011a.176.176 0 0 0 .089-.027c.03-.018.06-.04.089-.068a.699.699 0 0 0 .077-.087.397.397 0 0 0 .05-.085l.023.018a.671.671 0 0 1-.225.267.274.274 0 0 1-.15.046Zm.382.456a.117.117 0 0 1-.071-.024c-.022-.016-.033-.043-.033-.08 0-.036.011-.069.033-.1a.393.393 0 0 1 .086-.084.856.856 0 0 1 .113-.07l.118-.062a2.625 2.625 0 0 0 .091-.296.881.881 0 0 1-.142.164.227.227 0 0 1-.15.066.116.116 0 0 1-.1-.048.21.21 0 0 1-.034-.126c0-.062.015-.121.045-.177a.614.614 0 0 1 .276-.25.379.379 0 0 1 .154-.037c.035 0 .06.005.074.017.015.011.023.025.023.04 0 .01-.003.02-.01.025a.069.069 0 0 1-.012.01.051.051 0 0 0-.027-.02.143.143 0 0 0-.045-.006.251.251 0 0 0-.135.041.451.451 0 0 0-.116.106.615.615 0 0 0-.08.134.327.327 0 0 0-.029.126c0 .029.006.05.017.065a.055.055 0 0 0 .046.023c.035 0 .076-.023.124-.07.049-.045.096-.101.141-.167l.01-.045.012-.05a.197.197 0 0 1 .026-.058c.013-.022.035-.033.065-.033h.018a.1.1 0 0 1 .02.005c0 .02-.006.054-.017.105a3.271 3.271 0 0 1-.12.387.615.615 0 0 0 .291-.304l.023.018a.417.417 0 0 1-.086.147.83.83 0 0 1-.25.19c-.032.08-.068.154-.105.22a.706.706 0 0 1-.116.159.18.18 0 0 1-.128.059Zm-.005-.057c.024 0 .056-.024.098-.071a.933.933 0 0 0 .133-.243 1.638 1.638 0 0 0-.133.074.48.48 0 0 0-.102.082.138.138 0 0 0-.04.095c0 .019.005.034.014.046.008.011.018.017.03.017Zm.828-.366c-.073 0-.127-.02-.164-.06a.213.213 0 0 1-.054-.148c0-.054.013-.11.04-.17a.714.714 0 0 1 .256-.298.305.305 0 0 1 .16-.049c.027 0 .052.008.075.022.024.014.035.044.035.088a.225.225 0 0 1-.04.128.41.41 0 0 1-.106.107.622.622 0 0 1-.298.113.398.398 0 0 0-.008.064c0 .018.002.036.006.054a.137.137 0 0 0 .023.05c.01.014.025.026.044.034a.168.168 0 0 0 .069.013.299.299 0 0 0 .152-.044.58.58 0 0 0 .14-.116.76.76 0 0 0 .11-.158l.021.017a.667.667 0 0 1-.123.186.584.584 0 0 1-.161.123.388.388 0 0 1-.177.044Zm-.087-.302a.76.76 0 0 0 .226-.121.435.435 0 0 0 .093-.095.186.186 0 0 0 .037-.11.055.055 0 0 0-.007-.03c-.005-.008-.015-.011-.03-.011a.165.165 0 0 0-.092.033.473.473 0 0 0-.093.087.765.765 0 0 0-.08.118.597.597 0 0 0-.054.13Zm.614.28c-.051 0-.088-.015-.11-.047a.202.202 0 0 1-.031-.116c0-.037.006-.075.018-.115a.529.529 0 0 1 .047-.11.319.319 0 0 1 .066-.085.112.112 0 0 1 .075-.032c.006 0 .012 0 .019.002a.214.214 0 0 1 .018.007.224.224 0 0 0-.038.052.68.68 0 0 0-.075.186.311.311 0 0 0-.014.082c0 .036.006.062.018.078a.055.055 0 0 0 .047.025c.025 0 .055-.014.09-.04a.614.614 0 0 0 .102-.104.27.27 0 0 1-.078-.108.352.352 0 0 1-.028-.137c0-.04.007-.077.02-.111a.197.197 0 0 1 .06-.084.149.149 0 0 1 .095-.031c.05 0 .082.013.1.04a.18.18 0 0 1 .024.098.421.421 0 0 1-.034.155.91.91 0 0 1-.086.164.139.139 0 0 0 .068.018.213.213 0 0 0 .192-.13l.021.019a.23.23 0 0 1-.1.119.265.265 0 0 1-.125.035.211.211 0 0 1-.087-.018.665.665 0 0 1-.133.134.24.24 0 0 1-.14.054Zm.264-.263a.769.769 0 0 0 .074-.14.365.365 0 0 0 .03-.136.149.149 0 0 0-.015-.077c-.01-.016-.023-.024-.039-.024-.024 0-.048.018-.074.052a.218.218 0 0 0-.037.131c0 .035.005.07.015.105.01.035.026.065.046.089Zm.401.26a.112.112 0 0 1-.097-.055.22.22 0 0 1-.037-.126c0-.035.006-.075.017-.12a1.18 1.18 0 0 1 .042-.135.633.633 0 0 1 .052-.11c.018-.028.034-.042.047-.042.006 0 .016.003.03.01a.108.108 0 0 1 .036.025 1.048 1.048 0 0 0-.099.228.462.462 0 0 0-.017.177c.002.02.008.037.017.053.01.015.024.023.043.023.023 0 .047-.012.07-.035a.548.548 0 0 0 .073-.09c.025-.038.048-.078.07-.12a6.96 6.96 0 0 0 .114-.223.358.358 0 0 1 .07.022c.01.005.016.014.016.025 0 .004-.006.02-.018.047l-.042.099c-.016.038-.03.078-.042.117a.366.366 0 0 0-.018.104.09.09 0 0 0 .013.052c.01.013.024.02.046.02a.181.181 0 0 0 .091-.034.494.494 0 0 0 .11-.1.7.7 0 0 0 .098-.157l.024.017a.624.624 0 0 1-.099.17.51.51 0 0 1-.129.116.256.256 0 0 1-.133.042.134.134 0 0 1-.074-.018.096.096 0 0 1-.04-.049.181.181 0 0 1-.011-.066c0-.014.001-.03.003-.044a.702.702 0 0 1 .01-.046.94.94 0 0 1-.07.11.38.38 0 0 1-.08.082.143.143 0 0 1-.086.03Zm.84.037a.221.221 0 0 1-.134-.036.205.205 0 0 1-.07-.091.301.301 0 0 1-.02-.108.19.19 0 0 1 .014-.082.113.113 0 0 1 .035-.043.195.195 0 0 1 .04-.022.078.078 0 0 0 .025-.014.977.977 0 0 0 .178-.26v-.021c0-.045.007-.076.022-.095.015-.018.03-.027.048-.027.01 0 .016.002.021.007.005.005.007.01.007.016a.123.123 0 0 1-.005.029.195.195 0 0 0-.005.05c0 .04.007.082.023.128l.047.145a.54.54 0 0 1 .02.205.276.276 0 0 1-.008.042.251.251 0 0 0 .118-.057.462.462 0 0 0 .108-.146l.016.018a.304.304 0 0 1-.25.213.208.208 0 0 1-.092.113.271.271 0 0 1-.138.036Zm.003-.062a.165.165 0 0 0 .058-.015c.023-.01.042-.034.055-.073a.312.312 0 0 1-.134-.06.367.367 0 0 1-.086-.09c-.027.002-.04.023-.04.064 0 .043.013.082.038.119a.126.126 0 0 0 .11.055Zm.122-.117a.354.354 0 0 0 .007-.084.686.686 0 0 0-.02-.168 3.51 3.51 0 0 1-.035-.157 1.64 1.64 0 0 1-.087.13.9.9 0 0 1-.087.103.337.337 0 0 0 .083.108.301.301 0 0 0 .14.068Zm.658.59c-.01 0-.019-.005-.028-.015a.119.119 0 0 1-.028-.053c.017-.059.033-.111.05-.157l.048-.142c.016-.048.032-.105.047-.17.016-.065.032-.146.049-.243a6.81 6.81 0 0 0 .05-.36.049.049 0 0 1 .007-.024c.004-.005.013-.007.027-.007.031 0 .053.009.066.026.014.017.02.036.02.056a.645.645 0 0 1-.01.09 2.836 2.836 0 0 1-.031.153.84.84 0 0 1 .076-.12.456.456 0 0 1 .105-.103.221.221 0 0 1 .13-.041c.052 0 .095.019.13.056.033.038.05.087.05.148 0 .047-.01.096-.03.148a.567.567 0 0 1-.089.147.463.463 0 0 1-.134.112.343.343 0 0 1-.245.033c-.02-.007-.029-.015-.029-.022 0-.005.005-.007.014-.008h.031a.286.286 0 0 0 .137-.036.433.433 0 0 0 .2-.22.354.354 0 0 0 .029-.137.188.188 0 0 0-.024-.098c-.017-.027-.043-.04-.078-.04a.169.169 0 0 0-.093.029.424.424 0 0 0-.086.075.755.755 0 0 0-.12.184 15.163 15.163 0 0 1-.125.485c-.02.068-.038.123-.054.166a.238.238 0 0 1-.04.079.03.03 0 0 1-.022.009Zm1.008-.423c-.073 0-.128-.02-.164-.06a.212.212 0 0 1-.055-.148c0-.054.013-.11.04-.17a.702.702 0 0 1 .256-.298.305.305 0 0 1 .16-.049c.027 0 .052.008.076.022.023.014.034.044.034.088a.226.226 0 0 1-.04.128.419.419 0 0 1-.105.107.633.633 0 0 1-.3.113.44.44 0 0 0-.006.064.23.23 0 0 0 .006.054.133.133 0 0 0 .022.05c.011.014.026.026.044.034a.166.166 0 0 0 .07.013.299.299 0 0 0 .152-.044.583.583 0 0 0 .14-.116.76.76 0 0 0 .109-.158l.021.017a.673.673 0 0 1-.122.186.593.593 0 0 1-.162.123.39.39 0 0 1-.176.044Zm-.088-.302a.766.766 0 0 0 .227-.121.445.445 0 0 0 .093-.095.188.188 0 0 0 .036-.11.055.055 0 0 0-.007-.03c-.004-.008-.015-.011-.03-.011a.165.165 0 0 0-.092.033.473.473 0 0 0-.093.087.765.765 0 0 0-.08.118.597.597 0 0 0-.054.13Zm.801.27a.137.137 0 0 1-.096-.033.11.11 0 0 1-.035-.084.29.29 0 0 1 .025-.113l.05-.118a.276.276 0 0 0 .024-.104c0-.039-.011-.067-.033-.086a.847.847 0 0 0-.067-.05 3.18 3.18 0 0 1-.16.344l-.016-.03a2.262 2.262 0 0 0 .145-.341.059.059 0 0 1-.018-.044c0-.035.01-.065.03-.087.02-.023.036-.034.045-.034.014 0 .021.005.023.016l.003.027a.122.122 0 0 1-.01.034.15.15 0 0 0-.01.032c0 .017.009.032.027.045l.064.047a.301.301 0 0 1 .064.063.152.152 0 0 1 .028.094.288.288 0 0 1-.023.11l-.045.105a.223.223 0 0 0-.022.088c0 .022.005.036.016.043.011.007.024.011.038.011a.174.174 0 0 0 .088-.027c.031-.018.06-.04.09-.068a.69.69 0 0 0 .077-.087.397.397 0 0 0 .05-.085l.023.018a.671.671 0 0 1-.225.267.273.273 0 0 1-.15.046Zm.462.007c-.05 0-.088-.018-.11-.053a.244.244 0 0 1-.033-.132c0-.057.01-.126.033-.204.021-.08.05-.162.085-.25a3.385 3.385 0 0 1 .24-.482c.042-.068.081-.123.116-.163.036-.04.064-.061.084-.061.013 0 .024.007.032.022a.247.247 0 0 1 .027.11.444.444 0 0 1-.024.127 1.749 1.749 0 0 1-.172.368c-.04.065-.084.127-.131.187s-.097.111-.15.154a1.014 1.014 0 0 0-.023.181c0 .047.006.081.02.104a.065.065 0 0 0 .059.034.144.144 0 0 0 .096-.043.529.529 0 0 0 .09-.108.997.997 0 0 0 .072-.136l.027.015a.906.906 0 0 1-.156.24c-.056.06-.117.09-.181.09Zm.013-.438c.042-.042.083-.09.122-.144a2.424 2.424 0 0 0 .2-.34c.027-.055.048-.104.062-.148a.344.344 0 0 0 .022-.101c0-.012-.002-.02-.005-.023-.003-.004-.006-.006-.008-.006-.01 0-.026.015-.05.046a2.222 2.222 0 0 0-.177.299 3.526 3.526 0 0 0-.091.206c-.03.071-.054.142-.075.211Zm.45.475a.22.22 0 0 1-.133-.036.201.201 0 0 1-.07-.091.295.295 0 0 1-.021-.108.19.19 0 0 1 .014-.082.111.111 0 0 1 .035-.043.182.182 0 0 1 .04-.022.078.078 0 0 0 .026-.014c.036-.04.069-.08.098-.124a.977.977 0 0 0 .08-.136v-.021c0-.045.007-.076.022-.095.015-.018.03-.027.047-.027.01 0 .017.002.022.007.005.005.007.01.007.016a.123.123 0 0 1-.006.029.195.195 0 0 0-.005.05c0 .04.008.082.023.128.016.046.031.094.047.145a.54.54 0 0 1 .02.205.302.302 0 0 1-.007.042.251.251 0 0 0 .118-.057.462.462 0 0 0 .108-.146l.016.018a.304.304 0 0 1-.251.213.21.21 0 0 1-.09.113.273.273 0 0 1-.14.036Zm.004-.062a.165.165 0 0 0 .057-.015c.024-.01.042-.034.056-.073a.364.364 0 0 1-.22-.149c-.027.001-.04.022-.04.063 0 .043.013.082.038.119a.125.125 0 0 0 .109.055Zm.122-.117a.354.354 0 0 0 .007-.084.7.7 0 0 0-.02-.168 3.16 3.16 0 0 1-.036-.157 1.694 1.694 0 0 1-.087.13.92.92 0 0 1-.087.103.335.335 0 0 0 .084.108.3.3 0 0 0 .139.068Zm.894.145c-.051 0-.087-.015-.109-.047a.202.202 0 0 1-.032-.116c0-.037.006-.075.018-.115a.544.544 0 0 1 .047-.11.33.33 0 0 1 .066-.085.113.113 0 0 1 .075-.032c.006 0 .012 0 .019.002a.192.192 0 0 1 .019.007.226.226 0 0 0-.04.052.967.967 0 0 0-.075.186.318.318 0 0 0-.013.082c0 .036.006.062.018.078a.055.055 0 0 0 .047.025c.025 0 .055-.014.09-.04a.614.614 0 0 0 .102-.104.273.273 0 0 1-.079-.108.357.357 0 0 1-.027-.137.3.3 0 0 1 .02-.111.199.199 0 0 1 .06-.084.149.149 0 0 1 .096-.031c.049 0 .081.013.098.04a.18.18 0 0 1 .025.098.421.421 0 0 1-.034.155.91.91 0 0 1-.086.164.139.139 0 0 0 .068.018.213.213 0 0 0 .192-.13l.022.019a.23.23 0 0 1-.102.119.264.264 0 0 1-.124.035.211.211 0 0 1-.086-.018.66.66 0 0 1-.134.134.238.238 0 0 1-.14.054Zm.264-.263a.748.748 0 0 0 .074-.14.36.36 0 0 0 .03-.136.147.147 0 0 0-.015-.077c-.01-.016-.023-.024-.039-.024-.024 0-.048.018-.073.052a.218.218 0 0 0-.038.131c0 .035.005.07.015.105.01.035.026.065.046.089Zm.243.708a.094.094 0 0 1-.04-.011.096.096 0 0 1-.04-.046.23.23 0 0 1-.018-.1c0-.053.009-.122.027-.206.018-.084.042-.177.073-.279.032-.102.068-.206.108-.313.04-.107.084-.21.132-.31.047-.1.095-.19.145-.27.05-.079.099-.142.146-.188.048-.047.093-.07.136-.07.025 0 .042.008.05.023a.12.12 0 0 1 .012.056.405.405 0 0 1-.043.168.998.998 0 0 1-.112.184c-.046.062-.098.12-.154.176a1.261 1.261 0 0 1-.17.142 3.42 3.42 0 0 1-.034.09c.013.002.023.01.031.02a.078.078 0 0 1 .013.037c.009.054.018.102.027.145.01.042.024.075.044.1.02.023.048.035.085.035a.14.14 0 0 0 .106-.046.764.764 0 0 0 .093-.13l.027.018a.347.347 0 0 1-.114.156.22.22 0 0 1-.12.049.158.158 0 0 1-.068-.016.266.266 0 0 1-.065-.043 1.059 1.059 0 0 1-.088.426.562.562 0 0 1-.088.147c-.032.037-.066.056-.1.056Zm.047-.086c.014 0 .028-.012.045-.036a.503.503 0 0 0 .05-.094 1.501 1.501 0 0 0 .076-.268.723.723 0 0 0 .012-.126.341.341 0 0 0-.014-.101.67.67 0 0 0-.047-.108c-.03.09-.057.176-.08.26a2.774 2.774 0 0 0-.056.225.89.89 0 0 0-.02.162c0 .057.012.086.034.086Zm.233-1.031a1.87 1.87 0 0 0 .202-.216c.057-.073.1-.137.132-.194a.311.311 0 0 0 .046-.12c0-.018-.008-.026-.025-.026-.03 0-.066.025-.105.076-.04.05-.081.118-.124.202a3.26 3.26 0 0 0-.126.278Zm.656 1.117c-.01 0-.018-.005-.028-.015a.125.125 0 0 1-.027-.053c.017-.059.033-.111.049-.157a7.51 7.51 0 0 0 .048-.142 1.97 1.97 0 0 0 .048-.17c.016-.065.032-.146.049-.243.016-.097.033-.217.05-.36a.05.05 0 0 1 .007-.024c.004-.005.013-.007.027-.007.03 0 .053.009.066.026.013.017.02.036.02.056a.645.645 0 0 1-.01.09 2.825 2.825 0 0 1-.031.153c.02-.04.045-.08.076-.12a.46.46 0 0 1 .105-.103.22.22 0 0 1 .129-.041c.053 0 .096.019.13.056a.212.212 0 0 1 .051.148c0 .047-.01.096-.032.148a.556.556 0 0 1-.087.147.46.46 0 0 1-.134.112.343.343 0 0 1-.245.033c-.02-.007-.03-.015-.03-.022 0-.005.005-.007.014-.008h.032a.284.284 0 0 0 .137-.036.445.445 0 0 0 .2-.22.351.351 0 0 0 .028-.137.186.186 0 0 0-.024-.098c-.016-.027-.042-.04-.078-.04a.17.17 0 0 0-.092.029.435.435 0 0 0-.086.075.795.795 0 0 0-.12.184 16.14 16.14 0 0 1-.126.485c-.02.068-.038.123-.054.166a.232.232 0 0 1-.04.079.03.03 0 0 1-.022.009Zm1.008-.423c-.073 0-.127-.02-.164-.06a.212.212 0 0 1-.055-.148c0-.054.014-.11.04-.17a.714.714 0 0 1 .256-.298.305.305 0 0 1 .16-.049c.027 0 .053.008.076.022.023.014.035.044.035.088a.225.225 0 0 1-.04.128.412.412 0 0 1-.106.107.624.624 0 0 1-.299.113.398.398 0 0 0-.007.064c0 .018.002.036.006.054a.137.137 0 0 0 .023.05c.01.014.025.026.044.034a.168.168 0 0 0 .069.013.299.299 0 0 0 .152-.044.582.582 0 0 0 .14-.116c.043-.048.08-.1.11-.158l.021.017a.663.663 0 0 1-.123.186.584.584 0 0 1-.161.123.388.388 0 0 1-.177.044Zm-.088-.302a.765.765 0 0 0 .227-.121.431.431 0 0 0 .093-.095.186.186 0 0 0 .037-.11.055.055 0 0 0-.007-.03c-.005-.008-.015-.011-.03-.011a.165.165 0 0 0-.092.033.47.47 0 0 0-.093.087.779.779 0 0 0-.08.118.592.592 0 0 0-.055.13Zm.801.27a.135.135 0 0 1-.095-.033.109.109 0 0 1-.035-.084.29.29 0 0 1 .025-.113l.05-.118a.279.279 0 0 0 .023-.104c0-.039-.01-.067-.033-.086a.91.91 0 0 0-.067-.05 3.24 3.24 0 0 1-.16.344l-.016-.03a2.356 2.356 0 0 0 .145-.341.059.059 0 0 1-.018-.044c0-.035.01-.065.03-.087.021-.023.036-.034.046-.034.013 0 .02.005.022.016l.003.027a.125.125 0 0 1-.01.034.147.147 0 0 0-.01.032c0 .017.01.032.028.045l.063.047a.308.308 0 0 1 .064.063.153.153 0 0 1 .028.094.294.294 0 0 1-.022.11 3.6 3.6 0 0 1-.045.105.221.221 0 0 0-.023.088c0 .022.006.036.017.043.01.007.023.011.037.011a.176.176 0 0 0 .09-.027c.03-.018.059-.04.088-.068a.706.706 0 0 0 .077-.087.397.397 0 0 0 .05-.085l.023.018a.671.671 0 0 1-.225.267.274.274 0 0 1-.15.046Zm.291.455a.096.096 0 0 1-.041-.011.097.097 0 0 1-.04-.046.23.23 0 0 1-.018-.1c0-.053.01-.122.027-.206.018-.084.043-.177.074-.279a5.033 5.033 0 0 1 .24-.623c.046-.1.095-.19.145-.27.05-.079.098-.142.146-.188.047-.047.093-.07.136-.07.025 0 .041.008.05.023a.124.124 0 0 1 .01.056.408.408 0 0 1-.041.168.998.998 0 0 1-.112.184c-.047.062-.098.12-.155.176a1.261 1.261 0 0 1-.17.142.877.877 0 0 0-.034.09c.013.002.024.01.032.02a.078.078 0 0 1 .013.037c.008.054.017.102.027.145.01.042.024.075.044.1.02.023.048.035.085.035a.14.14 0 0 0 .106-.046.747.747 0 0 0 .093-.13l.027.018a.347.347 0 0 1-.114.156.222.222 0 0 1-.121.049.158.158 0 0 1-.067-.016.268.268 0 0 1-.066-.043 1.059 1.059 0 0 1-.088.426.562.562 0 0 1-.088.147c-.032.037-.065.056-.1.056Zm.047-.086c.013 0 .028-.012.044-.036a.503.503 0 0 0 .05-.094 1.18 1.18 0 0 0 .076-.268.723.723 0 0 0 .012-.126.341.341 0 0 0-.014-.101.707.707 0 0 0-.047-.108c-.03.09-.056.176-.08.26a2.778 2.778 0 0 0-.056.225.879.879 0 0 0-.02.162c0 .057.012.086.035.086Zm.233-1.031a1.87 1.87 0 0 0 .202-.216c.056-.073.1-.137.131-.194a.31.31 0 0 0 .047-.12c0-.018-.008-.026-.025-.026-.031 0-.067.025-.106.076-.04.05-.08.118-.124.202a3.26 3.26 0 0 0-.125.278Zm.437.669a.113.113 0 0 1-.098-.055.222.222 0 0 1-.036-.126.51.51 0 0 1 .017-.12c.011-.046.025-.09.042-.135a.633.633 0 0 1 .052-.11c.018-.028.033-.042.047-.042.005 0 .016.003.03.01a.108.108 0 0 1 .036.025 1.048 1.048 0 0 0-.099.228.462.462 0 0 0-.018.177c.003.02.009.037.018.053.01.015.024.023.043.023.023 0 .046-.012.07-.035a.538.538 0 0 0 .073-.09c.024-.038.048-.078.07-.12.023-.044.045-.085.064-.124l.05-.099a.341.341 0 0 1 .069.022c.011.005.017.014.017.025 0 .004-.006.02-.018.047l-.043.099c-.015.038-.03.078-.041.117a.366.366 0 0 0-.018.104c0 .022.004.039.013.052.009.013.024.02.046.02a.181.181 0 0 0 .091-.034.494.494 0 0 0 .11-.1.7.7 0 0 0 .098-.157l.023.017a.624.624 0 0 1-.098.17.51.51 0 0 1-.13.116.256.256 0 0 1-.132.042.136.136 0 0 1-.075-.018.099.099 0 0 1-.039-.049.185.185 0 0 1-.011-.066c0-.014 0-.03.003-.044a.777.777 0 0 1 .01-.046.94.94 0 0 1-.07.11.38.38 0 0 1-.08.082.143.143 0 0 1-.086.03Zm1.555.002c-.042 0-.072-.013-.092-.039a.151.151 0 0 1-.028-.092c0-.03.004-.06.013-.09l.027-.088a.258.258 0 0 0 .014-.077c0-.024-.006-.04-.017-.05a.053.053 0 0 0-.035-.015c-.03 0-.063.024-.098.07-.035.047-.081.113-.137.198a.61.61 0 0 0-.049.086l-.037.08a.224.224 0 0 1-.075-.015c-.011-.005-.017-.012-.017-.02a.26.26 0 0 1 .017-.06l.04-.112c.015-.042.028-.085.039-.13a.453.453 0 0 0 .017-.11.105.105 0 0 0-.01-.05c-.006-.013-.018-.02-.035-.02-.026 0-.058.017-.095.048a.831.831 0 0 0-.114.125c-.04.051-.077.108-.113.17a1.138 1.138 0 0 0-.085.183.18.18 0 0 1-.04-.005.17.17 0 0 1-.04-.014c-.011-.006-.017-.012-.017-.018 0-.008.007-.029.019-.064a4.091 4.091 0 0 0 .086-.279.577.577 0 0 0 .02-.136.117.117 0 0 1 .033-.025.1.1 0 0 1 .049-.013c.016 0 .028.004.036.013.008.008.012.02.012.034a.396.396 0 0 1-.014.08c-.008.037-.02.079-.033.124a1.114 1.114 0 0 1 .178-.228.57.57 0 0 1 .101-.081.192.192 0 0 1 .1-.031c.037 0 .062.013.076.04a.21.21 0 0 1 .02.096c0 .03-.003.061-.01.094a.976.976 0 0 1-.045.159c.025-.046.053-.09.083-.132a.482.482 0 0 1 .1-.104.188.188 0 0 1 .115-.04c.038 0 .064.01.08.034.014.022.022.05.022.08a.367.367 0 0 1-.016.102l-.034.108a.299.299 0 0 0-.017.09c0 .015.004.03.012.042.008.012.022.019.042.019a.129.129 0 0 0 .094-.046.558.558 0 0 0 .082-.111 1.34 1.34 0 0 0 .065-.127l.021.026c-.02.05-.044.1-.073.15a.461.461 0 0 1-.105.122.205.205 0 0 1-.132.048Zm.448.023c-.073 0-.128-.02-.164-.06a.212.212 0 0 1-.055-.148c0-.054.014-.11.04-.17a.698.698 0 0 1 .256-.298.305.305 0 0 1 .16-.049c.027 0 .052.008.076.022.023.014.035.044.035.088a.226.226 0 0 1-.04.128.419.419 0 0 1-.106.107.633.633 0 0 1-.299.113.398.398 0 0 0-.007.064.23.23 0 0 0 .006.054.133.133 0 0 0 .023.05c.01.014.025.026.044.034a.166.166 0 0 0 .068.013.3.3 0 0 0 .153-.044.582.582 0 0 0 .14-.116c.043-.048.08-.1.11-.158l.02.017a.67.67 0 0 1-.122.186.593.593 0 0 1-.161.123.39.39 0 0 1-.177.044Zm-.088-.302a.785.785 0 0 0 .227-.122.445.445 0 0 0 .093-.094.187.187 0 0 0 .037-.11.055.055 0 0 0-.007-.03c-.005-.008-.015-.011-.03-.011a.165.165 0 0 0-.092.033.473.473 0 0 0-.094.087.765.765 0 0 0-.08.118.597.597 0 0 0-.054.13Zm.801.27a.135.135 0 0 1-.095-.033.11.11 0 0 1-.036-.084.29.29 0 0 1 .026-.113l.05-.118a.277.277 0 0 0 .023-.104c0-.039-.01-.067-.033-.086a.93.93 0 0 0-.067-.05 3.18 3.18 0 0 1-.16.344l-.016-.03a2.344 2.344 0 0 0 .145-.341.059.059 0 0 1-.018-.044c0-.035.01-.065.03-.087.021-.023.036-.034.046-.034.013 0 .02.005.022.016l.003.027a.13.13 0 0 1-.01.034.15.15 0 0 0-.01.032c0 .017.01.032.028.045l.063.047a.308.308 0 0 1 .064.063.153.153 0 0 1 .028.094.294.294 0 0 1-.022.11l-.045.105a.22.22 0 0 0-.023.088c0 .022.006.036.016.043.011.007.024.011.038.011a.176.176 0 0 0 .089-.027c.03-.018.06-.04.089-.068a.69.69 0 0 0 .077-.087.397.397 0 0 0 .05-.085l.023.018a.674.674 0 0 1-.225.267.274.274 0 0 1-.15.046Zm.391.455a.134.134 0 0 1-.079-.024.082.082 0 0 1-.034-.071c0-.038.01-.072.03-.102a.33.33 0 0 1 .076-.083.807.807 0 0 1 .111-.072l.131-.068a2.865 2.865 0 0 0 .1-.328.908.908 0 0 1-.122.16c-.044.046-.09.068-.14.068a.16.16 0 0 1-.067-.016.13.13 0 0 1-.054-.047.146.146 0 0 1-.022-.082c0-.034.006-.073.017-.117.012-.044.026-.087.043-.129a.597.597 0 0 1 .052-.104c.017-.027.033-.041.046-.041l.026.005a.156.156 0 0 1 .036.015c.011.007.017.014.017.021a.447.447 0 0 0-.036.066 1.267 1.267 0 0 0-.07.2.362.362 0 0 0-.012.085c0 .022.005.04.014.053.01.013.026.02.05.02.023 0 .048-.012.076-.034a.526.526 0 0 0 .085-.085.982.982 0 0 0 .078-.111.667.667 0 0 0 .018-.083.195.195 0 0 1 .026-.058c.013-.022.035-.033.065-.033h.018l.02.005c0 .02-.006.055-.017.107a2.708 2.708 0 0 1-.123.395.52.52 0 0 0 .296-.305l.023.018a.415.415 0 0 1-.082.15.602.602 0 0 1-.122.11.948.948 0 0 1-.135.076 2.051 2.051 0 0 1-.101.215.734.734 0 0 1-.115.162c-.04.041-.08.062-.123.062Zm-.009-.057c.018 0 .048-.024.09-.071a.886.886 0 0 0 .136-.249 2.654 2.654 0 0 0-.136.079.407.407 0 0 0-.1.083.157.157 0 0 0-.038.104c0 .01.004.02.01.034.008.013.02.02.038.02Zm.797-.967.068-.175.08-.203c.029-.07.058-.134.087-.193a.934.934 0 0 1 .085-.144c.028-.036.053-.054.076-.054.01 0 .018.004.025.011.007.008.01.018.01.03a.321.321 0 0 1-.026.093 5.853 5.853 0 0 1-.169.368 9.97 9.97 0 0 1-.229.433 3.979 3.979 0 0 1-.102.173l-.003-.003-.003-.002a2.722 2.722 0 0 1 .074-.261l.026-.073Zm-.147.54a.07.07 0 0 1-.041-.012c-.011-.008-.017-.02-.017-.037 0-.02.012-.037.035-.052a.132.132 0 0 1 .07-.021c.013 0 .025.003.033.009.009.006.013.017.013.034 0 .018-.01.035-.029.053a.093.093 0 0 1-.064.026Z"/></g></g></g></g></g></g></g></g></g><defs><clipPath id="a"><path fill="#fff" d="M0 0h76.889v86.5H0z"/></clipPath><clipPath id="b"><path fill="#fff" d="M0 0h76.889v86.5H0z"/></clipPath><clipPath id="c"><path fill="#fff" d="M15.378 38.487H61.51v9.526H15.378z"/></clipPath><clipPath id="d"><path fill="#fff" d="M15.378 38.487H61.51v9.526H15.378z"/></clipPath><clipPath id="e"><path fill="#fff" d="M15.378 38.487H61.51v9.526H15.378z"/></clipPath><clipPath id="f"><path fill="#fff" d="M15.378 38.487H61.51v9.526H15.378z"/></clipPath><clipPath id="g"><path fill="#fff" d="M15.378 38.487H61.51v9.526H15.378z"/></clipPath><clipPath id="h"><path fill="#fff" d="M15.378 38.487H61.51v6.256H15.378z"/></clipPath><clipPath id="i"><path fill="#fff" d="M15.378 38.487H61.51v6.256H15.378z"/></clipPath><clipPath id="j"><path fill="#fff" d="M34.426 46.22h27.085v1.793H34.426z"/></clipPath><clipPath id="k"><path fill="#fff" d="M34.426 46.22h27.085v1.793H34.426z"/></clipPath></defs></svg>